<svg xmlns="http://www.w3.org/2000/svg" version="1.1" xmlns:xlink="http://www.w3.org/1999/xlink" xmlns:svgjs="http://svgjs.dev/svgjs" width="83" height="83"><svg width="83" height="83" viewBox="0 0 83 83" fill="none" xmlns="http://www.w3.org/2000/svg">
<circle cx="11.5" cy="11.5" r="11.5" fill="#FF6B6B"></circle>
<circle cx="41.5" cy="11.5" r="11.5" fill="#1C553D"></circle>
<circle cx="71.5" cy="11.5" r="11.5" fill="#89CFF0"></circle>
<circle cx="11.5" cy="41.5" r="11.5" fill="#D64545"></circle>
<path d="M53 41.5C53 47.8513 47.8513 53 41.5 53C35.1487 53 30 47.8513 30 41.5C30 35.1487 35.1487 30 41.5 30C47.8513 30 53 35.1487 53 41.5Z" fill="#2D936C"></path>
<circle cx="71.5" cy="41.5" r="11.5" fill="#0C305D"></circle>
<path d="M23 71.5C23 77.8513 17.8513 83 11.5 83C5.14873 83 0 77.8513 0 71.5C0 65.1487 5.14873 60 11.5 60C17.8513 60 23 65.1487 23 71.5Z" fill="#7D1F1F"></path>
<circle cx="41.5" cy="71.5" r="11.5" fill="#7FCD91"></circle>
<path d="M83 71.5C83 77.8513 77.8513 83 71.5 83C65.1487 83 60 77.8513 60 71.5C60 65.1487 65.1487 60 71.5 60C77.8513 60 83 65.1487 83 71.5Z" fill="#3066BE"></path>
</svg><style>@media (prefers-color-scheme: light) { :root { filter: none; } }
@media (prefers-color-scheme: dark) { :root { filter: none; } }
</style></svg>