<svg xmlns="http://www.w3.org/2000/svg" version="1.1" xmlns:xlink="http://www.w3.org/1999/xlink" xmlns:svgjs="http://svgjs.dev/svgjs" width="420" height="325"><svg width="420" height="325" viewBox="0 0 420 325" fill="none" xmlns="http://www.w3.org/2000/svg">
<path d="M209.798 0C93.8899 0 0.00556679 72.5373 0.00556679 162.117C-1.1469 287.664 176.892 358.201 300.447 308.239C306.388 306.035 311.796 302.6 316.317 298.16C320.838 293.72 324.369 288.376 326.68 282.476C328.991 276.577 330.029 270.256 329.726 263.928C329.423 257.599 327.787 251.406 324.923 245.754C311.683 218.866 288.85 190.149 319.855 167.274C326.033 163.097 333.372 160.975 340.826 161.21C348.281 161.445 355.471 164.026 361.374 168.584L378.77 182.044C395.339 194.935 419.884 183.1 419.592 162.118C419.591 72.5373 325.622 0 209.798 0ZM96.6856 168.061C65.1049 193.19 27.0683 147.907 57.3494 121.217C88.9363 96.0812 126.899 141.361 96.6856 168.061ZM126.756 77.257C127.759 36.9073 186.949 36.9155 187.945 77.2581C186.889 117.592 127.808 117.583 126.756 77.257ZM256.303 233.17C248.55 280.327 156.196 268.353 160.586 220.846C168.386 173.749 260.816 185.592 256.303 233.17ZM262.247 107.845C221.892 106.789 221.912 47.6609 262.247 46.6686C302.59 47.6652 302.592 106.798 262.247 107.845Z" fill="#1E1E2E"></path>
<path d="M96.6856 168.061C65.1049 193.19 27.0683 147.907 57.3494 121.217C88.9363 96.0812 126.899 141.361 96.6856 168.061Z" fill="#F38BA8"></path>
<path d="M126.756 77.257C127.759 36.9073 186.949 36.9155 187.945 77.2581C186.889 117.592 127.808 117.583 126.756 77.257Z" fill="#C6FFC0"></path>
<path d="M262.247 107.845C221.892 106.789 221.912 47.6609 262.247 46.6686C302.59 47.6652 302.592 106.798 262.247 107.845Z" fill="#C0F8FF"></path>
</svg><style>@media (prefers-color-scheme: light) { :root { filter: none; } }
@media (prefers-color-scheme: dark) { :root { filter: none; } }
</style></svg>