<svg xmlns="http://www.w3.org/2000/svg"
    xmlns:xlink="http://www.w3.org/1999/xlink" version="1.1" x="0px" y="0px" viewBox="0 0 100 125" enable-background="new 0 0 100 100" xml:space="preserve">
    <g>
        <polygon points="53.141,84.206 50.185,84.206 50.185,88.145 57.078,88.145 57.078,81.251 53.141,81.251  "/>
        <rect x="19.476" y="84.206" width="7.678" height="3.938"/>
        <rect x="34.83" y="84.206" width="7.678" height="3.938"/>
        <polygon points="8.844,81.251 4.905,81.251 4.905,88.145 11.799,88.145 11.799,84.206 8.844,84.206  "/>
        <rect x="4.905" y="65.897" width="3.938" height="7.677"/>
        <rect x="4.905" y="50.542" width="3.938" height="7.677"/>
        <polygon points="4.905,42.865 8.844,42.865 8.844,39.91 11.799,39.91 11.799,35.972 4.905,35.972  "/>
        <rect x="19.476" y="35.972" width="7.678" height="3.938"/>
        <rect x="53.141" y="65.897" width="3.938" height="7.677"/>
        <path d="M43.011,33.882c4.41,0,7.999-3.587,7.999-8c0-4.409-3.588-7.998-7.999-7.998s-7.999,3.589-7.999,7.998   C35.012,30.295,38.601,33.882,43.011,33.882z M43.011,21.822c2.238,0,4.06,1.822,4.06,4.06c0,2.238-1.821,4.06-4.06,4.06   s-4.059-1.821-4.059-4.06C38.953,23.645,40.773,21.822,43.011,21.822z"/>
        <path d="M95.096,55.438l-13.898-3.723V11.854H29.023v52.173h39.862l3.723,13.899l7.244-7.245l6.215,6.214l7.998-8l-6.213-6.212   L95.096,55.438z M77.258,15.793V50.66l-2.766-0.741L60.188,25.14L48.126,46.027l-5.035-8.723L32.96,54.852V15.793H77.258z    M34.488,60.089l8.604-14.905l5.035,8.721l12.061-20.886l8.924,15.459l-4.734-1.269l3.451,12.88H34.488z M88.494,68.897   l-2.428,2.429l-6.215-6.214l-5.205,5.205l-4.697-17.539l17.537,4.7l-5.207,5.205L88.494,68.897z"/>
    </g>
</svg>